<?xml version="1.0" encoding="UTF-8" standalone="no"?>
<!DOCTYPE svg PUBLIC "-//W3C//DTD SVG 1.1//EN" "http://www.w3.org/Graphics/SVG/1.1/DTD/svg11.dtd">
<svg version="1.1" xmlns="http://www.w3.org/2000/svg" xmlns:xlink="http://www.w3.org/1999/xlink" xml:space="preserve" xmlns:serif="http://www.serif.com/" style="fill-rule:evenodd;clip-rule:evenodd;stroke-linejoin:round;stroke-miterlimit:2;">
    <path d="M1098.01,1587.9L1010.89,1676.14L759.388,1421.4L747.212,1409.07L998.396,1154.65L1010.89,1141.99L1023.38,1154.65L1235.89,1369.89L1348.24,1300.81L1460.6,1369.89L1673.11,1154.65L1685.6,1141.99L1698.09,1154.65L1949.28,1409.07L1685.6,1676.14L1598.48,1587.9L1598.48,1760.45L1348.24,1914.31L1098.01,1760.45L1098.01,1587.9ZM1133.01,1740.88L1133.01,1484.3L1339.7,1612.32L1339.7,1867.97L1133.01,1740.88ZM1356.79,1611.29L1563.48,1484.2L1563.48,1740.88L1356.79,1867.97L1356.79,1611.29ZM1891.72,1417.4L1694.08,1617.58L1694.08,1445.82L1783.61,1394.2L1891.49,1417.36C1891.57,1417.37 1891.64,1417.39 1891.72,1417.4ZM1002.41,1617.58L804.772,1417.4C804.847,1417.39 804.922,1417.37 804.997,1417.36L911.829,1394.37L1002.41,1445.86L1002.41,1617.58ZM1522.73,1408.1L1586.54,1394.37L1677.12,1445.86L1677.12,1617.58L1598.48,1537.93L1598.48,1454.67L1522.73,1408.1ZM1141.14,1469.24L1348.24,1341.89L1555.27,1469.19L1347.42,1597L1141.14,1469.24ZM924.514,1382.07L1010.89,1217L1097.01,1381.48L1010.86,1431.15L924.514,1382.07ZM1599.23,1382.07L1685.6,1217L1771.72,1381.48L1685.57,1431.15L1599.23,1382.07ZM1789.05,1378.02L1698.45,1204.98L1890.87,1399.88L1789.05,1378.02ZM998.048,1204.97L907.538,1377.95L805.619,1399.88L998.048,1204.97ZM1023.73,1204.98C1053.93,1262.66 1084.13,1320.34 1114.34,1378.02L1194.63,1395.26L1205.19,1388.77L1023.73,1204.98ZM1491.3,1388.77L1672.76,1204.97C1642.59,1262.63 1612.42,1320.29 1582.25,1377.95L1501.84,1395.25L1491.3,1388.77ZM1173.73,1408.11L1108.89,1394.2L1019.37,1445.82L1019.37,1617.58L1098.01,1537.93L1098.01,1454.67L1173.73,1408.11Z"/>
</svg>
